<svg width="64" height="64" viewBox="0 0 64 64" fill="none" xmlns="http://www.w3.org/2000/svg">
<path d="M31.996 0.666122C14.328 0.666122 0 15.0501 0 32.7941C0 46.9861 9.168 59.0261 21.888 63.2781C23.488 63.5741 24.072 62.5821 24.072 61.7301C24.072 60.9661 24.044 58.9461 24.028 56.2661C15.128 58.2061 13.248 51.9581 13.248 51.9581C11.796 48.2461 9.696 47.2581 9.696 47.2581C6.788 45.2661 9.912 45.3061 9.912 45.3061C13.124 45.5341 14.812 48.6181 14.812 48.6181C17.668 53.5261 22.304 52.1101 24.128 51.2861C24.416 49.2101 25.244 47.7941 26.16 46.9901C19.056 46.1781 11.584 43.4221 11.584 31.1141C11.584 27.6061 12.832 24.7381 14.88 22.4901C14.548 21.6781 13.452 18.4101 15.192 13.9901C15.192 13.9901 17.88 13.1261 23.992 17.2821C26.544 16.5701 29.28 16.2141 32.004 16.2021C34.72 16.2181 37.46 16.5701 40.016 17.2861C46.124 13.1301 48.808 13.9941 48.808 13.9941C50.552 18.4181 49.456 21.6821 49.128 22.4941C51.18 24.7421 52.416 27.6101 52.416 31.1181C52.416 43.4581 44.936 46.1741 37.808 46.9701C38.956 47.9621 39.98 49.9221 39.98 52.9181C39.98 57.2141 39.94 60.6781 39.94 61.7301C39.94 62.5901 40.516 63.5901 42.14 63.2741C54.84 59.0181 64 46.9821 64 32.7941C64 15.0501 49.672 0.666122 31.996 0.666122Z" fill="black"/>
</svg>
